<svg width="18" height="18" viewBox="0 0 18 18" fill="none" xmlns="http://www.w3.org/2000/svg">
<path fill-rule="evenodd" clip-rule="evenodd" d="M2.95894 18H10.7553C12.254 18 13.4829 16.8194 13.675 15.3H14.1838C15.8153 15.3 17.1429 13.9061 17.1429 12.1931V3.10689C17.1429 1.39392 15.8153 0 14.1839 0H6.38751C4.75611 0 3.42857 1.39392 3.42857 3.10689V3.6H2.95894C1.32754 3.6 0 4.99392 0 6.70689V14.893C0 16.6061 1.32754 18 2.95894 18ZM5.14286 3.10689C5.14286 2.38626 5.7012 1.8 6.38751 1.8H14.1838C14.8702 1.8 15.4286 2.38626 15.4286 3.10689V12.193C15.4286 12.9137 14.8702 13.5 14.1839 13.5H13.7143V6.70689C13.7143 4.99392 12.3867 3.6 10.7553 3.6H5.14286V3.10689ZM2.95894 5.4C2.27263 5.4 1.71429 5.98626 1.71429 6.70689V14.8931C1.71429 15.6137 2.27263 16.2 2.95894 16.2H10.7553C11.4417 16.2 12 15.6137 12 14.893V6.70689C12 5.98626 11.4417 5.4 10.7553 5.4H2.95894Z" fill="white"/>
</svg>
