<svg width="19" height="20" viewBox="0 0 19 20" fill="none" xmlns="http://www.w3.org/2000/svg">
<path fill-rule="evenodd" clip-rule="evenodd" d="M2.83286 0.5C1.0469 0.506531 -0.00837376 1.96411 5.0054e-05 3.34205V12.5681C5.0054e-05 14.2068 0.843062 15.7346 2.23266 16.6031L6.39877 19.2125C7.68479 20.0162 9.44949 19.0338 9.44949 17.5172V15.6244H11.3405C12.8959 15.6244 14.1826 14.3469 14.1826 12.7916V11.8498C14.1846 11.3276 13.763 10.9026 13.2408 10.9005H13.2315C12.7094 10.9026 12.2877 11.3276 12.2897 11.8497V12.7915C12.2897 13.3249 11.8739 13.7333 11.3405 13.7333H9.44952V7.11666C9.44952 5.59381 8.53905 4.21338 7.13932 3.61351L4.29174 2.39283H11.3405C11.8738 2.39283 12.2897 2.80141 12.2897 3.33463V4.28381C12.2916 4.80345 12.7119 5.22383 13.2315 5.22561C13.7539 5.22769 14.1808 4.80616 14.1826 4.28381V3.33467C14.1826 1.77949 12.8957 0.500037 11.3405 0.5H2.83286ZM1.89107 3.41776L1.8911 3.41777V12.5681C1.8911 13.5573 2.39104 14.4721 3.22993 14.9965L7.40528 17.6076C7.51543 17.6765 7.55855 17.647 7.55855 17.5172V14.6825V7.11666C7.55855 6.34509 7.10244 5.65515 6.39328 5.35122L1.8911 3.41777V3.41776H1.89107ZM15.4032 5.50452C15.572 5.33445 15.7991 5.23478 16.0385 5.22568C16.2996 5.21823 16.5522 5.31916 16.7363 5.50445L18.5848 7.35112L18.5943 7.36036C18.7939 7.54045 18.9074 7.79699 18.9064 8.06581C18.9053 8.33982 18.7853 8.59988 18.5777 8.77864L16.7365 10.6216C16.3677 10.9883 15.772 10.9883 15.4032 10.6216C15.0365 10.2528 15.0365 9.65713 15.4032 9.28834L15.6839 9.00764H12.2897C11.7676 9.00968 11.3426 8.58801 11.3405 8.06584V8.05846C11.3426 7.53626 11.7676 7.11462 12.2897 7.11666H15.6747L15.4032 6.84521L15.3997 6.84165C15.0314 6.47144 15.033 5.8728 15.4032 5.50452Z" fill="white"/>
</svg>
