<svg width="17" height="18" viewBox="0 0 17 18" fill="none" xmlns="http://www.w3.org/2000/svg">
<path fill-rule="evenodd" clip-rule="evenodd" d="M5.9433 11.5567C6.12769 11.7411 6.36938 11.8333 6.61111 11.8333C6.85281 11.8333 7.09451 11.7411 7.27876 11.5567L15.111 3.72456V7.11108C15.111 7.63271 15.5337 8.05553 16.0554 8.05553C16.577 8.05553 16.9999 7.63271 16.9999 7.11108V1.44442C16.9999 1.31377 16.9733 1.18939 16.9254 1.07623C16.8807 0.970658 16.816 0.871485 16.7312 0.784651L16.7311 0.784585L16.7293 0.782705L16.7287 0.782177L16.7273 0.780692L16.7263 0.779735L16.7253 0.77868L16.7233 0.776634L16.7212 0.774589L16.7202 0.773533L16.7192 0.772576L16.7178 0.771125L16.7172 0.770597L16.7153 0.768749L16.7153 0.768683C16.6285 0.683862 16.5293 0.619133 16.4237 0.574462C16.3106 0.526525 16.1862 0.5 16.0555 0.5H10.3889C9.86725 0.5 9.44446 0.92282 9.44446 1.44445C9.44446 1.96608 9.86725 2.3889 10.3889 2.3889H13.7754L5.9433 10.221C5.57449 10.5898 5.57449 11.1879 5.9433 11.5567ZM2.83332 17.5H12.2777C13.0345 17.5 13.746 17.2052 14.2812 16.6701C14.8163 16.1349 15.1111 15.4235 15.1111 14.6666V10.8889C15.1111 10.3673 14.6882 9.94446 14.1666 9.94446C13.645 9.94446 13.2221 10.3672 13.2221 10.8889V14.6666C13.2221 14.9189 13.1239 15.1561 12.9455 15.3344C12.7671 15.5128 12.53 15.6111 12.2777 15.6111H2.83332C2.58103 15.6111 2.34389 15.5128 2.16553 15.3345C1.98715 15.1561 1.8889 14.9189 1.8889 14.6666V5.22221C1.8889 4.96993 1.98718 4.73275 2.16553 4.5544C2.34389 4.37605 2.58103 4.2778 2.83332 4.2778H6.61111C7.13274 4.2778 7.55556 3.85498 7.55556 3.33335C7.55556 2.81172 7.13274 2.3889 6.61111 2.3889H2.83335C2.07649 2.3889 1.36499 2.68365 0.82987 3.21877C0.294747 3.75389 0 4.46539 0 5.22221V14.6666C0 15.4234 0.294714 16.1349 0.829837 16.6701C1.36496 17.2052 2.07646 17.5 2.83332 17.5Z" fill="white"/>
</svg>
