<svg width="17" height="18" viewBox="0 0 17 18" fill="none" xmlns="http://www.w3.org/2000/svg">
<path fill-rule="evenodd" clip-rule="evenodd" d="M11.52 8.04H16C16.3535 8.04 16.64 8.32654 16.64 8.68V12.52C16.64 12.8735 16.3535 13.16 16 13.16H15.36V15.08C15.3588 16.1399 14.4999 16.9988 13.44 17H3.2C1.43288 16.9995 0.000459272 15.5671 0 13.8V4.2C0.000459272 2.43288 1.43288 1.00046 3.2 1H12.16C13.2203 1.00028 14.0797 1.85973 14.08 2.92V3.6697C14.8834 3.89117 15.4191 4.6487 15.36 5.48V6.13344C15.36 6.4869 15.0735 6.77344 14.72 6.77344C14.3665 6.77344 14.08 6.4869 14.08 6.13344V5.48C14.0795 5.12673 13.7933 4.84046 13.44 4.84H3.2C2.84654 4.84 2.56 4.55346 2.56 4.2C2.56 3.84654 2.84654 3.56 3.2 3.56H12.8V2.92C12.8 2.56654 12.5135 2.28 12.16 2.28H3.2C2.13973 2.28028 1.28028 3.13973 1.28 4.2V13.8C1.28028 14.8603 2.13973 15.7197 3.2 15.72H13.44C13.7933 15.7195 14.0795 15.4333 14.08 15.08V13.16H11.52C10.1062 13.16 8.96 12.0138 8.96 10.6C8.96 9.18615 10.1062 8.04 11.52 8.04ZM10.24 10.6C10.24 11.3069 10.8131 11.88 11.52 11.88H15.36V9.32H11.52C10.8131 9.32 10.24 9.89307 10.24 10.6Z" fill="white"/>
<path d="M15.36 13.16V13.06H15.26V13.16H15.36ZM15.36 15.08L15.46 15.0801V15.08H15.36ZM13.44 17V17.1L13.4401 17.1L13.44 17ZM3.2 17L3.19997 17.1H3.2V17ZM0 13.8L-0.1 13.8L-0.1 13.8L0 13.8ZM0 4.2L-0.1 4.19997V4.2H0ZM3.2 1L3.2 0.9L3.19997 0.9L3.2 1ZM12.16 1L12.16 0.9H12.16V1ZM14.08 2.92L14.18 2.92L14.18 2.91997L14.08 2.92ZM14.08 3.6697H13.98V3.74586L14.0534 3.7661L14.08 3.6697ZM15.36 5.48L15.26 5.4729V5.48H15.36ZM14.08 5.48L14.18 5.48L14.18 5.47987L14.08 5.48ZM13.44 4.84L13.4401 4.74H13.44V4.84ZM12.8 3.56V3.66H12.9V3.56H12.8ZM3.2 2.28L3.2 2.18L3.19997 2.18L3.2 2.28ZM1.28 4.2L1.18 4.19997V4.2H1.28ZM1.28 13.8H1.18L1.18 13.8L1.28 13.8ZM3.2 15.72L3.19997 15.82H3.2V15.72ZM13.44 15.72V15.82L13.4401 15.82L13.44 15.72ZM14.08 15.08L14.18 15.0801V15.08H14.08ZM14.08 13.16H14.18V13.06H14.08V13.16ZM15.36 11.88V11.98H15.46V11.88H15.36ZM15.36 9.32H15.46V9.22H15.36V9.32ZM16 7.94H11.52V8.14H16V7.94ZM16.74 8.68C16.74 8.27131 16.4087 7.94 16 7.94V8.14C16.2982 8.14 16.54 8.38177 16.54 8.68H16.74ZM16.74 12.52V8.68H16.54V12.52H16.74ZM16 13.26C16.4087 13.26 16.74 12.9287 16.74 12.52H16.54C16.54 12.8182 16.2982 13.06 16 13.06V13.26ZM15.36 13.26H16V13.06H15.36V13.26ZM15.46 15.08V13.16H15.26V15.08H15.46ZM13.4401 17.1C14.5552 17.0988 15.4588 16.1952 15.46 15.0801L15.26 15.0799C15.2589 16.0847 14.4447 16.8989 13.4399 16.9L13.4401 17.1ZM3.2 17.1H13.44V16.9H3.2V17.1ZM-0.1 13.8C-0.0995264 15.6224 1.37764 17.0995 3.19997 17.1L3.20003 16.9C1.48811 16.8996 0.100445 15.5119 0.1 13.8L-0.1 13.8ZM-0.1 4.2V13.8H0.1V4.2H-0.1ZM3.19997 0.9C1.37764 0.900474 -0.0995264 2.37764 -0.1 4.19997L0.1 4.20003C0.100445 2.48811 1.48811 1.10044 3.20003 1.1L3.19997 0.9ZM12.16 0.9H3.2V1.1H12.16V0.9ZM14.18 2.91997C14.1797 1.8045 13.2755 0.900297 12.16 0.9L12.16 1.1C13.165 1.10027 13.9797 1.91496 13.98 2.92003L14.18 2.91997ZM14.18 3.6697V2.92H13.98V3.6697H14.18ZM15.4597 5.48709C15.5222 4.60826 14.9559 3.80742 14.1066 3.57329L14.0534 3.7661C14.8109 3.97491 15.3159 4.68913 15.2603 5.47291L15.4597 5.48709ZM15.46 6.13344V5.48H15.26V6.13344H15.46ZM14.72 6.87344C15.1287 6.87344 15.46 6.54213 15.46 6.13344H15.26C15.26 6.43167 15.0182 6.67344 14.72 6.67344V6.87344ZM13.98 6.13344C13.98 6.54213 14.3113 6.87344 14.72 6.87344V6.67344C14.4218 6.67344 14.18 6.43167 14.18 6.13344H13.98ZM13.98 5.48V6.13344H14.18V5.48H13.98ZM13.4399 4.94C13.738 4.94039 13.9796 5.18198 13.98 5.48013L14.18 5.47987C14.1795 5.07147 13.8485 4.74053 13.4401 4.74L13.4399 4.94ZM3.2 4.94H13.44V4.74H3.2V4.94ZM2.46 4.2C2.46 4.60869 2.79131 4.94 3.2 4.94V4.74C2.90177 4.74 2.66 4.49823 2.66 4.2H2.46ZM3.2 3.46C2.79131 3.46 2.46 3.79131 2.46 4.2H2.66C2.66 3.90177 2.90177 3.66 3.2 3.66V3.46ZM12.8 3.46H3.2V3.66H12.8V3.46ZM12.7 2.92V3.56H12.9V2.92H12.7ZM12.16 2.38C12.4582 2.38 12.7 2.62177 12.7 2.92H12.9C12.9 2.51131 12.5687 2.18 12.16 2.18V2.38ZM3.2 2.38H12.16V2.18H3.2V2.38ZM1.38 4.20003C1.38027 3.19496 2.19496 2.38027 3.20003 2.38L3.19997 2.18C2.0845 2.1803 1.1803 3.0845 1.18 4.19997L1.38 4.20003ZM1.38 13.8V4.2H1.18V13.8H1.38ZM3.20003 15.62C2.19496 15.6197 1.38027 14.805 1.38 13.8L1.18 13.8C1.1803 14.9155 2.0845 15.8197 3.19997 15.82L3.20003 15.62ZM13.44 15.62H3.2V15.82H13.44V15.62ZM13.98 15.0799C13.9796 15.378 13.738 15.6196 13.4399 15.62L13.4401 15.82C13.8485 15.8195 14.1795 15.4885 14.18 15.0801L13.98 15.0799ZM13.98 13.16V15.08H14.18V13.16H13.98ZM11.52 13.26H14.08V13.06H11.52V13.26ZM8.86 10.6C8.86 12.0691 10.0509 13.26 11.52 13.26V13.06C10.1614 13.06 9.06 11.9586 9.06 10.6H8.86ZM11.52 7.94C10.0509 7.94 8.86 9.13092 8.86 10.6H9.06C9.06 9.24138 10.1614 8.14 11.52 8.14V7.94ZM11.52 11.78C10.8683 11.78 10.34 11.2517 10.34 10.6H10.14C10.14 11.3622 10.7578 11.98 11.52 11.98V11.78ZM15.36 11.78H11.52V11.98H15.36V11.78ZM15.26 9.32V11.88H15.46V9.32H15.26ZM11.52 9.42H15.36V9.22H11.52V9.42ZM10.34 10.6C10.34 9.9483 10.8683 9.42 11.52 9.42V9.22C10.7578 9.22 10.14 9.83785 10.14 10.6H10.34Z" fill="white"/>
</svg>
