<svg width="15" height="14" viewBox="0 0 15 14" fill="none" xmlns="http://www.w3.org/2000/svg">
<path fill-rule="evenodd" clip-rule="evenodd" d="M7.33753 0C6.41827 0 5.50802 0.18106 4.65874 0.532843C3.80946 0.884626 3.03779 1.40024 2.38778 2.05025C1.07502 3.36301 0.337524 5.14348 0.337524 7C0.337524 8.85651 1.07502 10.637 2.38778 11.9497C3.03779 12.5998 3.80946 13.1154 4.65874 13.4672C5.50802 13.8189 6.41827 14 7.33753 14C9.19404 14 10.9745 13.2625 12.2872 11.9497C13.6 10.637 14.3375 8.85651 14.3375 7C14.3375 6.08075 14.1564 5.17049 13.8046 4.32122C13.4529 3.47194 12.9372 2.70026 12.2872 2.05025C11.6372 1.40024 10.8656 0.884626 10.0163 0.532843C9.16703 0.18106 8.25678 0 7.33753 0ZM1.73753 7C1.73753 10.087 4.25053 12.6 7.33753 12.6C10.4245 12.6 12.9375 10.087 12.9375 7C12.9375 3.913 10.4245 1.4 7.33753 1.4C4.25053 1.4 1.73753 3.913 1.73753 7ZM8.03753 3.5V4.9H6.63753V3.5H8.03753ZM8.03753 6.3V10.5H6.63753V6.3H8.03753Z" fill="#AB9DB1"/>
</svg>
