<svg width="80" height="81" viewBox="0 0 80 81" fill="none" xmlns="http://www.w3.org/2000/svg">
<path d="M31.8545 27.2494L41.8248 18.575L43.6344 20.655L33.6641 29.3294L31.8545 27.2494Z" fill="#C3D2EA"/>
<path d="M35.8613 38.6275H57.9299V41.386H35.8613V38.6275Z" fill="#C3D2EA"/>
<path d="M32.2021 53.0528L34.0145 50.9729L43.3504 59.1077L41.538 61.1877L32.2021 53.0528Z" fill="#C3D2EA"/>
<path d="M5.72461 53.7306C0.162068 48.2233 -1.52538 39.9027 1.4521 32.6634C4.42958 25.4241 11.4829 20.6985 19.3106 20.6985C27.1382 20.6985 34.1915 25.4241 37.169 32.6634C40.1465 39.9027 38.459 48.2233 32.8965 53.7306H5.72461Z" fill="#E3F0FF"/>
<path d="M32.8965 53.7306C25.3714 61.1811 13.2497 61.1811 5.72461 53.7306C7.70498 50.3878 11.2875 48.322 15.1727 48.2825H23.4484C27.3336 48.322 30.9161 50.3878 32.8965 53.7306Z" fill="#4F53FF"/>
<path d="M15.6142 47.3445L15.1729 49.6617C15.1729 51.947 17.0254 53.7996 19.3107 53.7996C21.596 53.7996 23.4486 51.947 23.4486 49.6617L23.0072 47.3583V47.3445H15.6142Z" fill="#E8ACA7"/>
<path d="M44.1372 22.7381C39.5908 19.7004 37.5674 14.0456 39.1546 8.81315C40.7418 3.5807 45.5658 0.00296021 51.0337 0.00296021C56.5015 0.00296021 61.3255 3.5807 62.9127 8.81315C64.4999 14.0456 62.4765 19.7004 57.9301 22.7381H44.1372Z" fill="#E3F0FF"/>
<path d="M28.9652 38.6868V33.8896C28.9594 31.8473 28.1422 29.8911 26.6936 28.4515C25.2449 27.0119 23.2836 26.207 21.2413 26.2139H17.3793C15.337 26.207 13.3756 27.0119 11.927 28.4515C10.4783 29.8911 9.66112 31.8473 9.65527 33.8896V38.6868H28.9652Z" fill="#070742"/>
<path d="M27.0341 36.7682C27.0552 35.7001 26.2787 34.7829 25.2217 34.6276C23.3592 34.4313 21.5468 33.9035 19.8701 33.069C19.5249 32.8865 19.1119 32.8865 18.7667 33.069C17.09 33.9035 15.2776 34.4313 13.4151 34.6276C12.3575 34.7823 11.5803 35.6996 11.6013 36.7682C10.9033 36.7495 10.2502 37.1112 9.89575 37.7127C9.54126 38.3142 9.54126 39.0608 9.89575 39.6623C10.2502 40.2638 10.9033 40.6255 11.6013 40.6067C11.7261 44.7809 15.1459 48.1 19.3218 48.1C23.4978 48.1 26.9176 44.7809 27.0424 40.6067C27.7403 40.6255 28.3934 40.2638 28.7479 39.6623C29.1024 39.0608 29.1024 38.3142 28.7479 37.7127C28.3934 37.1112 27.7403 36.7495 27.0424 36.7682H27.0341Z" fill="#F9C4BD"/>
<path d="M57.9305 22.0209V22.7381C53.7578 25.5334 48.3105 25.5334 44.1377 22.7381V22.0209C44.2078 19.8174 45.5157 17.8423 47.5169 16.9176L54.5927 16.8348C56.6012 17.7879 57.8949 19.798 57.9305 22.0209Z" fill="#EAAD32"/>
<path d="M45.5166 13.1107V11.1659C45.5135 9.67751 46.0927 8.24689 47.1304 7.17981C48.1564 6.1262 49.5631 5.52969 51.0337 5.52467C52.5136 5.54068 53.9264 6.14413 54.9612 7.20217C55.9959 8.26022 56.5678 9.68611 56.5509 11.1659V13.1107H45.5166Z" fill="#72382A"/>
<path d="M56.5509 13.1107C56.5584 13.9928 55.9954 14.7787 55.1579 15.0555C54.9821 17.2027 53.1882 18.8558 51.0338 18.8558C48.8794 18.8558 47.0855 17.2027 46.9098 15.0555C46.0722 14.7787 45.5093 13.9928 45.5167 13.1107C45.5167 11.9681 46.443 11.0418 47.5856 11.0418C48.4879 11.0621 49.3786 10.836 50.1621 10.388C50.6992 10.0681 51.3684 10.0681 51.9055 10.388C52.689 10.836 53.5797 11.0621 54.482 11.0418C55.6247 11.0418 56.5509 11.9681 56.5509 13.1107Z" fill="#B26049"/>
<path d="M60.689 50.3238C56.1426 47.2861 54.1192 41.6313 55.7064 36.3988C57.2935 31.1664 62.1175 27.5886 67.5854 27.5886C73.0533 27.5886 77.8773 31.1664 79.4645 36.3988C81.0517 41.6313 79.0283 47.2861 74.4818 50.3238H60.689Z" fill="#E3F0FF"/>
<path d="M74.4823 49.6066V50.3238C70.3095 53.119 64.8622 53.119 60.6895 50.3238V49.6066C60.7596 47.4031 62.0675 45.428 64.0687 44.5032L71.1444 44.4205C73.1529 45.3736 74.4467 47.3837 74.4823 49.6066Z" fill="#4F53FF"/>
<path d="M62.0684 40.6964V38.7516C62.0653 37.2632 62.6444 35.8326 63.6821 34.7655C64.7081 33.7119 66.1149 33.1154 67.5855 33.1103C69.0653 33.1263 70.4782 33.7298 71.5129 34.7878C72.5477 35.8459 73.1196 37.2718 73.1026 38.7516V40.6964H62.0684Z" fill="#070742"/>
<path d="M73.1027 40.6964C73.1101 41.5784 72.5471 42.3644 71.7096 42.6412C71.5339 44.7884 69.74 46.4415 67.5856 46.4415C65.4312 46.4415 63.6373 44.7884 63.4615 42.6412C62.624 42.3644 62.061 41.5784 62.0684 40.6964C62.0684 39.5538 62.9947 38.6275 64.1374 38.6275C65.0396 38.6477 65.9304 38.4217 66.7139 37.9737C67.251 37.6538 67.9202 37.6538 68.4573 37.9737C69.2407 38.4217 70.1315 38.6477 71.0338 38.6275C72.1764 38.6275 73.1027 39.5538 73.1027 40.6964Z" fill="#F9C4BD"/>
<path d="M44.1372 77.9095C39.5908 74.8718 37.5674 69.2169 39.1546 63.9845C40.7418 58.752 45.5658 55.1743 51.0337 55.1743C56.5015 55.1743 61.3255 58.752 62.9127 63.9845C64.4999 69.2169 62.4765 74.8718 57.9301 77.9095H44.1372Z" fill="#E3F0FF"/>
<path d="M57.9305 77.1922V77.9095C53.7578 80.7047 48.3105 80.7047 44.1377 77.9095V77.1922C44.2078 74.9888 45.5157 73.0137 47.5169 72.0889L54.5927 72.0061C56.6012 72.9592 57.8949 74.9694 57.9305 77.1922Z" fill="#EAAD32"/>
<path d="M45.5166 68.2821V66.3373C45.5135 64.8488 46.0927 63.4182 47.1304 62.3512C48.1564 61.2975 49.5631 60.701 51.0337 60.696C52.5136 60.712 53.9264 61.3155 54.9612 62.3735C55.9959 63.4316 56.5678 64.8575 56.5509 66.3373V68.2821H45.5166Z" fill="#72382A"/>
<path d="M56.5509 68.2821C56.5584 69.1641 55.9954 69.95 55.1579 70.2269C54.9821 72.3741 53.1882 74.0271 51.0338 74.0271C48.8794 74.0271 47.0855 72.3741 46.9098 70.2269C46.0722 69.95 45.5093 69.1641 45.5167 68.2821C45.5167 67.1394 46.443 66.2132 47.5856 66.2132C48.4879 66.2334 49.3786 66.0074 50.1621 65.5594C50.6992 65.2394 51.3684 65.2394 51.9055 65.5594C52.689 66.0074 53.5797 66.2334 54.482 66.2132C55.6247 66.2132 56.5509 67.1394 56.5509 68.2821Z" fill="#B26049"/>
</svg>
