<svg width="71" height="71" viewBox="0 0 71 71" fill="none" xmlns="http://www.w3.org/2000/svg">
<path d="M43.5311 26.5547V18.1064C43.5311 13.3051 41.6238 8.70039 38.2287 5.30534C34.8337 1.91028 30.229 0.00296021 25.4277 0.00296021C15.4294 0.00296021 7.32422 8.10815 7.32422 18.1064V26.5547H43.5311Z" fill="#8F5C4A"/>
<path d="M43.5675 50.3064C42.6915 49.6838 41.7531 49.1539 40.7675 48.7254L31.4623 44.6581H19.3933L10.0882 48.7254C4.00923 51.3861 0.0819514 57.3931 0.083008 64.0288V67.5892C0.0869845 68.9206 1.16535 69.999 2.4968 70.003H48.3589C49.6903 69.999 50.7687 68.9206 50.7727 67.5892V67.2633L43.5675 50.3064Z" fill="#1584E8"/>
<path d="M31.4625 42.6788V44.6581C31.4625 47.9909 28.7608 50.6926 25.428 50.6926C22.0953 50.6926 19.3936 47.9909 19.3936 44.6581V42.6788H31.4625Z" fill="#D7AA91"/>
<path d="M10.9449 22.934C8.94526 22.934 7.32422 24.555 7.32422 26.5547C7.32422 28.5543 8.94526 30.1754 10.9449 30.1754L11.5846 34.0012C11.9915 36.4521 13.388 38.628 15.4466 40.0188C17.8906 41.6723 21.4775 44.6581 25.4277 44.6581C29.3778 44.6581 32.9647 41.6723 35.4147 40.0188C37.4734 38.628 38.8698 36.4521 39.2768 34.0012L39.9104 30.1754C41.9101 30.1754 43.5311 28.5543 43.5311 26.5547C43.5311 24.555 41.9101 22.934 39.9104 22.934C39.9104 20.5383 38.4549 18.4974 36.5082 18.2199C32.9634 17.7728 29.5472 16.6064 26.4692 14.7923C25.8351 14.3832 25.0202 14.3832 24.3861 14.7923C21.3081 16.6064 17.8919 17.7728 14.3471 18.2199C12.4004 18.4974 10.9449 20.5383 10.9449 22.934Z" fill="#E7BDA0"/>
<path d="M69.7113 33.4943L66.2113 37.045C65.8475 37.4084 65.3002 37.5159 64.826 37.3172C64.3517 37.1184 64.0446 36.6528 64.0486 36.1386V35.003H54.3934C53.7269 35.003 53.1865 34.4626 53.1865 33.7961V31.3823C53.1865 30.7157 53.7269 30.1754 54.3934 30.1754H64.0486V29.0409C64.0456 28.5278 64.3524 28.0635 64.8255 27.865C65.2987 27.6664 65.8449 27.7729 66.2089 28.1345L69.7089 31.6852C70.2045 32.186 70.2056 32.9922 69.7113 33.4943Z" fill="#6AC579"/>
<path d="M48.7309 21.4266L52.2309 24.9773C52.5947 25.3406 53.1421 25.4482 53.6163 25.2494C54.0905 25.0507 54.3977 24.5851 54.3937 24.0709V22.934H64.0489C64.7154 22.934 65.2558 22.3936 65.2558 21.7271V19.3133C65.2558 18.6468 64.7154 18.1064 64.0489 18.1064H54.3937V16.9719C54.3967 16.4588 54.0899 15.9945 53.6168 15.796C53.1436 15.5975 52.5974 15.7039 52.2334 16.0655L48.7334 19.6162C48.237 20.1172 48.2359 20.9243 48.7309 21.4266Z" fill="#6AC579"/>
<path d="M70.083 50.765V60.2754C70.0868 62.0298 69.1524 63.6524 67.633 64.5297L59.1847 69.3693C57.7122 70.2141 55.902 70.2141 54.4295 69.3693L45.9813 64.5297C44.4619 63.6524 43.5274 62.0298 43.5313 60.2754V50.765C43.5277 49.0106 44.462 47.3881 45.9813 46.5107L54.4295 41.6711C55.902 40.8263 57.7122 40.8263 59.1847 41.6711L67.633 46.5107C69.1522 47.3881 70.0866 49.0106 70.083 50.765Z" fill="#30E5E5"/>
<path d="M48.3584 58.809V52.2314C48.3582 51.3614 48.8262 50.5587 49.5834 50.1302L55.6179 46.7147C56.3555 46.2973 57.2579 46.2973 57.9955 46.7147L64.0299 50.1302C64.7871 50.5587 65.2551 51.3614 65.2549 52.2314V58.809C65.2551 59.679 64.7871 60.4817 64.0299 60.9102L57.9955 64.3257C57.2579 64.7431 56.3555 64.7431 55.6179 64.3257L49.5834 60.9102C48.8262 60.4817 48.3582 59.679 48.3584 58.809Z" fill="#1584E8"/>
</svg>
