<svg width="18" height="18" viewBox="0 0 18 18" fill="none" xmlns="http://www.w3.org/2000/svg">
<path fill-rule="evenodd" clip-rule="evenodd" d="M5.4 14.4H16.2C17.19 14.4 18 13.59 18 12.6V1.8C18 0.81 17.19 0 16.2 0H5.4C4.41 0 3.6 0.81 3.6 1.8V12.6C3.6 13.59 4.41 14.4 5.4 14.4ZM5.4 12.6V1.8H16.2V12.6H5.4ZM11.7 18H1.8C0.81 18 0 17.19 0 16.2V6.3C0 5.76 0.36 5.4 0.9 5.4C1.44 5.4 1.8 5.76 1.8 6.3V16.2H11.7C12.24 16.2 12.6 16.56 12.6 17.1C12.6 17.64 12.24 18 11.7 18ZM14.13 4.77C14.49 5.13 14.49 5.67 14.13 6.03L10.53 9.63C10.17 9.99 9.63 9.99 9.27 9.63L7.47 7.83C7.11 7.47 7.11 6.93 7.47 6.57C7.83 6.21 8.37 6.21 8.73 6.57L9.9 7.74L9.27 8.37L9.9 9L10.53 8.37L9.9 7.74L12.87 4.77C13.23 4.41 13.77 4.41 14.13 4.77Z" fill="white"/>
</svg>
