<svg width="26" height="27" viewBox="0 0 26 27" fill="none" xmlns="http://www.w3.org/2000/svg">
<circle cx="13" cy="13.014" r="13" fill="#9917CC"/>
<path fill-rule="evenodd" clip-rule="evenodd" d="M17.1717 7.20359C17.0307 7.06263 16.836 6.97537 16.6211 6.97537C16.4061 6.97537 16.2114 7.06262 16.0705 7.20358C15.9295 7.34454 15.8423 7.53923 15.8423 7.75418V16.3945L14.5105 15.0628C14.3584 14.9107 14.159 14.8346 13.9596 14.8346C13.7602 14.8346 13.5608 14.9107 13.4087 15.0628C13.2566 15.215 13.1805 15.4144 13.1805 15.6138C13.1805 15.8131 13.2566 16.0125 13.4087 16.1647L16.0733 18.8267C16.1979 18.9502 16.3691 19.035 16.545 19.0495C16.7291 19.0645 16.916 19.0114 17.1824 18.8157L19.8077 16.1904C19.9598 16.0383 20.0359 15.8389 20.0359 15.6395C20.0359 15.4401 19.9598 15.2407 19.8077 15.0885C19.6556 14.9364 19.4562 14.8603 19.2568 14.8603C19.0574 14.8603 18.858 14.9364 18.7058 15.0885L17.3999 16.3945V7.75418C17.3999 7.53923 17.3126 7.34454 17.1717 7.20359ZM9.91438 7.18479C9.72288 7.01244 9.46976 6.94425 9.03076 7.06971C8.88833 7.15417 8.76535 7.27996 8.57538 7.47428C8.56081 7.48918 8.54585 7.50447 8.53046 7.52019L8.32304 7.72726C8.23133 7.81951 8.11646 7.93565 7.95105 8.10289C7.93404 8.12009 7.91649 8.13783 7.89838 8.15614L7.49736 8.55669L7.14107 8.91088C7.08383 8.96882 7.02631 9.02686 6.96224 9.0913L6.82351 9.2306L6.74411 9.31017L6.1911 9.86342C6.03896 10.0156 5.96289 10.215 5.96289 10.4143C5.96289 10.6137 6.03896 10.8131 6.1911 10.9653C6.343 11.1182 6.54222 11.1938 6.74136 11.1938C6.94051 11.1938 7.13973 11.1182 7.29119 10.9657L8.62335 9.63355V18.2739C8.62335 18.4889 8.7106 18.6835 8.85156 18.8245C8.99252 18.9655 9.18721 19.0527 9.40216 19.0527C9.61711 19.0527 9.81179 18.9655 9.95275 18.8245C10.0937 18.6835 10.181 18.4889 10.181 18.2739V9.63355L11.4869 10.9395C11.6385 11.0911 11.8378 11.1681 12.0372 11.1681C12.2364 11.1681 12.4356 11.0925 12.587 10.94C12.7429 10.7842 12.8173 10.5785 12.787 10.3514C12.7554 10.1136 12.611 9.86119 12.207 9.45667L12.2062 9.45584C12.0929 9.342 11.9799 9.2284 11.8657 9.11594C11.7851 9.03573 11.7046 8.9556 11.6105 8.8617L11.1661 8.41798L10.9157 8.16799C10.7927 8.04701 10.6685 7.92491 10.5472 7.79997C10.342 7.58965 10.1339 7.38276 9.91438 7.18479Z" fill="white"/>
</svg>
