<svg width="30" height="31" viewBox="0 0 30 31" fill="none" xmlns="http://www.w3.org/2000/svg">
<circle cx="15" cy="15.5" r="15" transform="rotate(-90 15 15.5)" fill="#330C30"/>
<path d="M8.0332 15.4852C8.0332 15.2371 8.13388 15.0125 8.29653 14.8499C8.45917 14.6872 8.68381 14.5865 8.93183 14.5865H18.9015L17.3946 13.0796C17.219 12.9041 17.1312 12.674 17.1312 12.444C17.1312 12.2139 17.219 11.9838 17.3946 11.8083C17.5701 11.6327 17.8002 11.5449 18.0302 11.5449C18.2603 11.5449 18.4904 11.6327 18.6659 11.8083L21.6951 14.8374C21.9209 15.1448 21.9821 15.3605 21.9649 15.5729C21.9482 15.7759 21.8503 15.9735 21.7078 16.1172L18.6362 19.1917C18.4607 19.3673 18.2306 19.455 18.0006 19.455C17.7705 19.455 17.5404 19.3673 17.3649 19.1917C17.1893 19.0162 17.1016 18.7861 17.1016 18.556C17.1016 18.326 17.1893 18.0959 17.3649 17.9204L18.9015 16.3838H8.93183C8.68381 16.3838 8.45917 16.2831 8.29652 16.1205C8.13388 15.9578 8.0332 15.7332 8.0332 15.4852Z" fill="white"/>
</svg>
