<svg width="27" height="24" viewBox="0 0 27 24" fill="none" xmlns="http://www.w3.org/2000/svg">
<path d="M13.7443 22.3305C20.1076 22.3305 25.2737 17.1859 25.2737 10.8305C25.2737 4.47507 20.1076 -0.66951 13.7443 -0.66951C7.38089 -0.66951 2.21484 4.47507 2.21484 10.8305C2.21484 17.1859 7.38089 22.3305 13.7443 22.3305Z" fill="#9917CC" stroke="#260845" stroke-width="3"/>
<path fill-rule="evenodd" clip-rule="evenodd" d="M10.9719 14.4358C11.6028 15.0626 12.6767 14.6157 12.6767 13.7264V7.93461C12.6767 7.04529 11.6028 6.59841 10.9719 7.22519L8.05694 10.1211C7.66331 10.5121 7.66331 11.1489 8.05694 11.5399L10.9719 14.4358ZM16.515 14.4358C15.8841 15.0626 14.8102 14.6157 14.8102 13.7264V7.93461C14.8102 7.04529 15.8841 6.59841 16.515 7.22519L19.4299 10.1211C19.8236 10.5121 19.8236 11.1489 19.4299 11.5399L16.515 14.4358Z" fill="white"/>
</svg>
