<svg width="61" height="75" viewBox="0 0 61 75" fill="none" xmlns="http://www.w3.org/2000/svg">
<g clip-path="url(#clip0_0_2025)">
<path d="M5.492 61.731C6.61867 61.731 7.55467 62.017 8.3 62.589C9.04533 63.161 9.548 63.9367 9.808 64.916H8.235C8.01833 64.3613 7.67167 63.9237 7.195 63.603C6.727 63.2737 6.15067 63.109 5.466 63.109C4.92 63.109 4.43033 63.2433 3.997 63.512C3.57233 63.7807 3.23433 64.1663 2.983 64.669C2.74033 65.163 2.619 65.7437 2.619 66.411C2.619 67.0697 2.74033 67.6503 2.983 68.153C3.23433 68.647 3.57233 69.0283 3.997 69.297C4.43033 69.5657 4.92 69.7 5.466 69.7C6.15067 69.7 6.727 69.5397 7.195 69.219C7.67167 68.8897 8.01833 68.452 8.235 67.906H9.808C9.548 68.8853 9.04533 69.661 8.3 70.233C7.55467 70.7963 6.61867 71.078 5.492 71.078C4.62533 71.078 3.85833 70.883 3.191 70.493C2.52367 70.0943 2.008 69.544 1.644 68.842C1.28 68.1313 1.098 67.321 1.098 66.411C1.098 65.501 1.28 64.695 1.644 63.993C2.008 63.2823 2.52367 62.7277 3.191 62.329C3.85833 61.9303 4.62533 61.731 5.492 61.731ZM16.1031 63.72C16.9351 63.72 17.6025 63.9887 18.1051 64.526C18.6078 65.0633 18.8591 65.8303 18.8591 66.827V71H17.3771V66.983C17.3771 66.3417 17.2125 65.8477 16.8831 65.501C16.5538 65.1457 16.1031 64.968 15.5311 64.968C14.9418 64.968 14.4695 65.1587 14.1141 65.54C13.7588 65.9127 13.5811 66.463 13.5811 67.191V71H12.0991V61.38H13.5811V65.41C13.7718 64.8727 14.0925 64.4567 14.5431 64.162C14.9938 63.8673 15.5138 63.72 16.1031 63.72ZM24.2778 63.746C24.9278 63.746 25.4825 63.9063 25.9418 64.227C26.4011 64.5477 26.7261 64.9723 26.9168 65.501V63.837H28.3988V71H26.9168V69.336C26.7261 69.8647 26.4011 70.2893 25.9418 70.61C25.4825 70.9307 24.9278 71.091 24.2778 71.091C23.6538 71.091 23.0948 70.9437 22.6008 70.649C22.1155 70.3543 21.7341 69.9297 21.4568 69.375C21.1795 68.8203 21.0408 68.166 21.0408 67.412C21.0408 66.6667 21.1795 66.0167 21.4568 65.462C21.7341 64.9073 22.1155 64.4827 22.6008 64.188C23.0948 63.8933 23.6538 63.746 24.2778 63.746ZM24.7328 65.046C24.0741 65.046 23.5455 65.2583 23.1468 65.683C22.7568 66.099 22.5618 66.6753 22.5618 67.412C22.5618 68.1487 22.7568 68.7293 23.1468 69.154C23.5455 69.57 24.0741 69.778 24.7328 69.778C25.1488 69.778 25.5215 69.6827 25.8508 69.492C26.1801 69.2927 26.4401 69.0153 26.6308 68.66C26.8215 68.3047 26.9168 67.8887 26.9168 67.412C26.9168 66.944 26.8215 66.5323 26.6308 66.177C26.4401 65.813 26.1801 65.5357 25.8508 65.345C25.5215 65.1457 25.1488 65.046 24.7328 65.046ZM34.5908 69.713V71H33.6808C32.9181 71 32.3374 70.818 31.9388 70.454C31.5488 70.0813 31.3538 69.466 31.3538 68.608V65.098H30.3268V63.837H31.3538V62.056H32.8488V63.837H34.5778V65.098H32.8488V68.634C32.8488 69.0413 32.9224 69.323 33.0698 69.479C33.2258 69.635 33.4944 69.713 33.8758 69.713H34.5908ZM40.8995 63.746C41.5235 63.746 42.0782 63.8933 42.5635 64.188C43.0575 64.4827 43.4432 64.9073 43.7205 65.462C43.9979 66.0167 44.1365 66.6667 44.1365 67.412C44.1365 68.166 43.9979 68.8203 43.7205 69.375C43.4432 69.9297 43.0575 70.3543 42.5635 70.649C42.0782 70.9437 41.5235 71.091 40.8995 71.091C40.2495 71.091 39.6949 70.9307 39.2355 70.61C38.7762 70.2893 38.4555 69.8647 38.2735 69.336V71H36.7915V61.38H38.2735V65.501C38.4555 64.9723 38.7762 64.5477 39.2355 64.227C39.6949 63.9063 40.2495 63.746 40.8995 63.746ZM40.4445 65.046C40.0285 65.046 39.6559 65.1457 39.3265 65.345C38.9972 65.5357 38.7372 65.813 38.5465 66.177C38.3559 66.5323 38.2605 66.944 38.2605 67.412C38.2605 67.8887 38.3559 68.3047 38.5465 68.66C38.7372 69.0153 38.9972 69.2927 39.3265 69.492C39.6559 69.6827 40.0285 69.778 40.4445 69.778C41.1032 69.778 41.6319 69.57 42.0305 69.154C42.4292 68.7293 42.6285 68.1487 42.6285 67.412C42.6285 66.684 42.4292 66.1077 42.0305 65.683C41.6319 65.2583 41.1032 65.046 40.4445 65.046ZM49.6525 63.746C50.3458 63.746 50.9698 63.8933 51.5245 64.188C52.0792 64.4827 52.5125 64.9073 52.8245 65.462C53.1365 66.0167 53.2925 66.6667 53.2925 67.412C53.2925 68.166 53.1365 68.8203 52.8245 69.375C52.5125 69.9297 52.0792 70.3543 51.5245 70.649C50.9698 70.9437 50.3458 71.091 49.6525 71.091C48.9592 71.091 48.3352 70.9437 47.7805 70.649C47.2345 70.3543 46.8012 69.9297 46.4805 69.375C46.1685 68.8117 46.0125 68.1573 46.0125 67.412C46.0125 66.6667 46.1685 66.0167 46.4805 65.462C46.8012 64.9073 47.2345 64.4827 47.7805 64.188C48.3352 63.8933 48.9592 63.746 49.6525 63.746ZM49.6525 65.033C49.2712 65.033 48.9202 65.1197 48.5995 65.293C48.2788 65.4663 48.0188 65.735 47.8195 66.099C47.6288 66.4543 47.5335 66.892 47.5335 67.412C47.5335 67.9407 47.6288 68.3827 47.8195 68.738C48.0188 69.0933 48.2788 69.3577 48.5995 69.531C48.9202 69.7043 49.2712 69.791 49.6525 69.791C50.0338 69.791 50.3848 69.7043 50.7055 69.531C51.0262 69.3577 51.2818 69.0933 51.4725 68.738C51.6718 68.3827 51.7715 67.9407 51.7715 67.412C51.7715 66.892 51.6718 66.4543 51.4725 66.099C51.2818 65.735 51.0262 65.4663 50.7055 65.293C50.3848 65.1197 50.0338 65.033 49.6525 65.033ZM59.1308 69.713V71H58.2208C57.4581 71 56.8775 70.818 56.4788 70.454C56.0888 70.0813 55.8938 69.466 55.8938 68.608V65.098H54.8668V63.837H55.8938V62.056H57.3888V63.837H59.1178V65.098H57.3888V68.634C57.3888 69.0413 57.4625 69.323 57.6098 69.479C57.7658 69.635 58.0345 69.713 58.4158 69.713H59.1308Z" fill="white"/>
<line x1="11" y1="8" x2="11" y2="21" stroke="#9917CC" stroke-width="2"/>
<line x1="51" y1="8" x2="51" y2="21" stroke="#9917CC" stroke-width="2"/>
<path d="M51.4527 29.5238C51.4527 19.4922 42.9434 11.3597 31.0008 11.3597C19.0582 11.3597 10.5488 19.4922 10.5488 29.5238C10.5488 37.7125 15.8289 44.6336 24.6945 46.9008C24.2191 48.4613 23.1789 49.6539 21.6605 51.441C21.3619 51.792 21.1839 52.2297 21.1528 52.6895C21.1216 53.1493 21.2389 53.6069 21.4875 53.995C21.736 54.3831 22.1026 54.6811 22.5333 54.8452C22.964 55.0092 23.4359 55.0306 23.8797 54.9062C28.8168 53.5304 32.8148 50.8 35.493 47.2988L35.4871 47.2957C45.2762 45.5586 51.4527 38.2633 51.4527 29.5238Z" fill="#9917CC"/>
<path d="M10.5484 29.5239C10.5396 25.8729 11.7024 22.3155 13.866 19.3746C12.8949 19.4328 10.0328 19.8278 8.54487 21.311C6.90424 22.9442 6.83393 25.0793 6.73002 28.1723C6.62299 31.3426 6.55307 33.4313 8.06049 35.0727C9.25385 36.2836 10.5714 36.8543 12.055 36.7524C11.0499 34.4757 10.5365 32.0125 10.5484 29.5239Z" fill="#D05FFC"/>
<path d="M55.2707 28.1719C55.1668 25.0789 55.0949 22.9437 53.4559 21.3105C51.968 19.8262 49.1059 19.4324 48.1348 19.3742C50.2983 22.315 51.4612 25.8725 51.4523 29.5234C51.4606 32.0146 50.9355 34.4786 49.9125 36.75C51.4098 36.8574 52.7383 36.2957 53.9402 35.0703C55.4477 33.4308 55.3777 31.3422 55.2707 28.1719Z" fill="#D05FFC"/>
<path d="M31.0006 11.3598C34.824 11.3412 38.5995 12.2103 42.0299 13.8988C42.1022 12.6035 41.9737 10.643 40.8104 9.15469C39.0303 6.87969 35.9456 6.85938 31.0006 6.85938C26.0557 6.85938 22.9709 6.88047 21.1909 9.15742C20.0276 10.6457 19.8991 12.6062 19.9713 13.9016C23.4015 12.2121 27.177 11.342 31.0006 11.3598Z" fill="#D05FFC"/>
<path d="M31.0007 14.6801C21.0499 14.6801 13.9695 23.3215 15.0167 33.1242C15.2016 34.9186 16.044 36.5811 17.3814 37.7915C18.7189 39.0019 20.457 39.6746 22.2609 39.6801C26.6308 39.6676 26.6308 37.241 31.0007 37.241C35.3706 37.241 35.3706 39.6676 39.7406 39.6801C41.5444 39.6746 43.2825 39.0019 44.62 37.7915C45.9575 36.5811 46.7998 34.9186 46.9847 33.1242C48.032 23.3215 40.9515 14.6801 31.0007 14.6801Z" fill="#4E1664"/>
<path d="M39.3984 26.1453C39.4037 25.9098 39.3624 25.6757 39.2767 25.4563C39.1911 25.2369 39.0629 25.0366 38.8994 24.867C38.736 24.6974 38.5407 24.5618 38.3246 24.468C38.1086 24.3742 37.8761 24.3242 37.6406 24.3207C37.1749 24.3223 36.7288 24.5081 36.3995 24.8373C36.0702 25.1666 35.8845 25.6128 35.8828 26.0785V28.8129C35.8833 29.2789 36.0687 29.7257 36.3982 30.0553C36.7278 30.3848 37.1746 30.5702 37.6406 30.5707C37.8763 30.5676 38.1089 30.5179 38.3252 30.4243C38.5415 30.3307 38.737 30.1951 38.9005 30.0254C39.064 29.8557 39.1922 29.6552 39.2777 29.4356C39.3631 29.216 39.4042 28.9816 39.3984 28.7461C39.3984 28.0957 39.3984 26.7957 39.3984 26.1453Z" fill="white"/>
<path d="M24.3598 24.3207C24.1243 24.3241 23.8918 24.3742 23.6758 24.4679C23.4597 24.5616 23.2643 24.6972 23.1009 24.8669C22.9375 25.0365 22.8093 25.2368 22.7236 25.4562C22.638 25.6756 22.5967 25.9098 22.602 26.1453C22.604 26.7957 22.604 28.0957 22.602 28.7461C22.5967 28.9815 22.6381 29.2157 22.7237 29.4351C22.8094 29.6545 22.9376 29.8548 23.101 30.0244C23.2644 30.194 23.4598 30.3296 23.6758 30.4233C23.8919 30.5171 24.1243 30.5672 24.3598 30.5707C24.8256 30.5691 25.2718 30.3834 25.6011 30.0541C25.9304 29.7248 26.1161 29.2786 26.1176 28.8129V26.0785C26.116 25.6128 25.9303 25.1666 25.601 24.8373C25.2717 24.5081 24.8255 24.3223 24.3598 24.3207Z" fill="white"/>
<path d="M31 43.391C31.9708 43.391 32.7578 42.604 32.7578 41.6332C32.7578 40.6624 31.9708 39.8754 31 39.8754C30.0292 39.8754 29.2422 40.6624 29.2422 41.6332C29.2422 42.604 30.0292 43.391 31 43.391Z" fill="#4E1664"/>
<circle cx="11" cy="9" r="3" fill="#9617C7"/>
<circle cx="51" cy="9" r="3" fill="#9617C7"/>
</g>
<defs>
<clipPath id="clip0_0_2025">
<rect width="60" height="75" fill="white" transform="translate(0.5)"/>
</clipPath>
</defs>
</svg>
