<svg width="30" height="21" viewBox="0 0 30 21" fill="none" xmlns="http://www.w3.org/2000/svg">
<path fill-rule="evenodd" clip-rule="evenodd" d="M18.3333 20.1C17.4128 20.1 16.6667 19.3538 16.6667 18.4333C16.6667 17.5129 17.4128 16.7667 18.3333 16.7667H24.3533L16.0257 8.30884L12.085 12.311C11.7718 12.6292 11.3439 12.8083 10.8974 12.8083C10.4509 12.8083 10.0231 12.6292 9.70981 12.311L0.479046 2.93601C-0.166754 2.28017 -0.15857 1.22484 0.497329 0.579008C1.15323 -0.066824 2.20846 -0.0584908 2.85428 0.597342L10.8974 8.76617L14.838 4.76401C15.1513 4.44584 15.5792 4.26667 16.0257 4.26667C16.4722 4.26667 16.9 4.44584 17.2133 4.76401L26.6666 14.3651V8.43334C26.6666 7.51284 27.4128 6.76667 28.3333 6.76667C29.2538 6.76667 30 7.51284 30 8.43334V18.427V18.4333C30 18.4468 29.9998 18.4602 29.9995 18.4736C29.9999 18.4581 30 18.4426 30 18.427M29.5275 19.5959C29.5113 19.6126 29.4947 19.629 29.4777 19.645C29.4861 19.6371 29.4944 19.6291 29.5026 19.6209C29.5111 19.6127 29.5193 19.6043 29.5275 19.5959ZM28.9606 19.9779C28.767 20.0566 28.5552 20.1 28.3333 20.1H18.3333" fill="#FF1744"/>
</svg>
