<svg width="77" height="64" viewBox="0 0 77 64" fill="none" xmlns="http://www.w3.org/2000/svg">
<path fill-rule="evenodd" clip-rule="evenodd" d="M20.7413 24.1836C26.23 24.1836 31.207 26.4164 34.8118 30.0213C38.4167 33.6261 40.6495 38.6031 40.6495 44.0918C40.6495 49.5805 38.4167 54.5575 34.8118 58.1623C31.207 61.7672 26.23 64 20.7413 64C15.2526 64 10.2756 61.7672 6.67076 58.1623C3.06593 54.5575 0.83313 49.5806 0.83313 44.0918C0.83313 38.603 3.06593 33.6261 6.67076 30.0213C10.2756 26.4164 15.2526 24.1836 20.7413 24.1836ZM20.7413 28.4826C16.4378 28.4826 12.5354 30.233 9.70894 33.0594C6.88249 35.8859 5.13208 39.7883 5.13208 44.0918C5.13208 48.3953 6.88249 52.2977 9.70894 55.1242C12.5354 57.9506 16.4378 59.701 20.7413 59.701C25.0449 59.701 28.9472 57.9506 31.7737 55.1242C34.6001 52.2977 36.3505 48.3953 36.3505 44.0918C36.3505 39.7883 34.6001 35.8859 31.7737 33.0594C28.9472 30.233 25.0449 28.4826 20.7413 28.4826ZM22.284 31.8781C21.8814 31.4582 21.3213 31.2259 20.7413 31.2259C20.1582 31.2259 19.6009 31.4596 19.2003 31.8774C18.8265 32.2672 18.5918 32.8164 18.397 33.7616C17.0752 34.2564 16.0765 35.0763 15.3979 36.0664C14.6541 37.1516 14.2945 38.4398 14.3106 39.7232C14.3267 41.0141 14.7228 42.3008 15.4937 43.372C16.199 44.3521 17.2184 45.1507 18.5447 45.6079L21.5363 46.6395C22.0553 46.8185 22.4137 47.1458 22.6251 47.5334C22.8591 47.9628 22.9124 48.47 22.7911 48.9449C22.6768 49.3927 22.4078 49.8109 21.9932 50.1048C21.6363 50.3578 21.1697 50.5204 20.5965 50.5204C20.0465 50.5204 19.5477 50.2968 19.1865 49.9355C18.8252 49.5742 18.6016 49.0754 18.6016 48.5255C18.6016 47.9319 18.361 47.3945 17.9721 47.0056C17.5831 46.6166 17.0457 46.376 16.4521 46.376C15.8585 46.376 15.3212 46.6166 14.9322 47.0056C14.5432 47.3945 14.3026 47.9319 14.3026 48.5255C14.3026 49.8544 14.7167 51.0882 15.4227 52.1049C16.1494 53.1516 17.1853 53.9684 18.5918 54.7029C18.5918 55.3701 18.8266 55.9174 19.1986 56.3055C19.6012 56.7254 20.1613 56.9577 20.7413 56.9577C21.3244 56.9577 21.8817 56.724 22.2823 56.3063C22.6561 55.9164 22.8908 55.3672 23.0856 54.422C24.4074 53.9272 25.4061 53.1073 26.0847 52.1172C26.8285 51.032 27.1881 49.7438 27.172 48.4604C27.1559 47.1695 26.7597 45.8828 25.9888 44.8116C25.2835 43.8314 24.2641 43.0329 22.9378 42.5755L19.9462 41.544C19.4271 41.365 19.0688 41.0376 18.8575 40.65C18.6234 40.2207 18.5702 39.7134 18.6915 39.2385C18.8059 38.7908 19.0748 38.3725 19.4894 38.0787C19.8463 37.8257 20.313 37.6632 20.8862 37.6632C21.4361 37.6632 21.9349 37.8868 22.2961 38.2481C22.6574 38.6094 22.881 39.1082 22.881 39.6581C22.881 40.2517 23.1216 40.7891 23.5106 41.178C23.8995 41.567 24.4369 41.8076 25.0305 41.8076C25.6241 41.8076 26.1615 41.567 26.5504 41.178C26.9394 40.7891 27.18 40.2517 27.18 39.6581C27.18 38.3292 26.7659 37.0954 26.06 36.0787C25.3332 35.032 24.2973 34.2152 22.8908 33.4807C22.8908 32.8135 22.656 32.2662 22.284 31.8781Z" fill="#A433D1"/>
<path fill-rule="evenodd" clip-rule="evenodd" d="M69.8839 16.8352C70.4775 16.8352 71.0149 17.0758 71.4039 17.4647C71.7928 17.8537 72.0334 18.3911 72.0334 18.9847V59.701H74.0174C74.611 59.701 75.1484 59.9416 75.5374 60.3306C75.9263 60.7196 76.1669 61.2569 76.1669 61.8505C76.1669 62.4441 75.9263 62.9815 75.5374 63.3705C75.1484 63.7594 74.611 64 74.0174 64H39.7248C39.1312 64 38.5938 63.7594 38.2048 63.3705C37.8159 62.9815 37.5753 62.4441 37.5753 61.8505C37.5753 61.2569 37.8159 60.7196 38.2048 60.3306C38.5938 59.9416 39.1312 59.701 39.7248 59.701H50.435V28.7826C50.435 28.189 50.6756 27.6516 51.0646 27.2627C51.4535 26.8737 51.9909 26.6331 52.5845 26.6331C53.1781 26.6331 53.7155 26.8737 54.1044 27.2627C54.4934 27.6516 54.734 28.189 54.734 28.7826V59.701H67.7345V18.9847C67.7345 18.3911 67.975 17.8537 68.364 17.4647C68.753 17.0758 69.2903 16.8352 69.8839 16.8352ZM68.6868 0.600616C70.0188 0.604468 70.2946 0.617732 70.5498 0.709029C71.404 1.06284 71.8958 1.70334 72.0065 2.43417L72.0342 6.25423L72.0334 9.79915C72.0334 10.3927 71.7928 10.9301 71.4039 11.3191C71.0149 11.7081 70.4775 11.9486 69.8839 11.9486C69.2903 11.9486 68.753 11.7081 68.364 11.3191C67.975 10.9301 67.7345 10.3927 67.7345 9.79915V7.94613L54.1045 21.5763C53.6848 21.996 53.1347 22.2058 52.5846 22.2058C52.0345 22.2058 51.4844 21.996 51.0647 21.5763L46.9966 17.5084L38.0296 26.4752C37.6099 26.8949 37.0599 27.1048 36.5098 27.1048C35.9597 27.1048 35.4097 26.8949 34.9898 26.4751C34.5701 26.0554 34.3602 25.5053 34.3602 24.9552C34.3602 24.4051 34.5701 23.855 34.9899 23.4353L45.4767 12.9485C45.8964 12.5288 46.4465 12.319 46.9966 12.319C47.5467 12.319 48.0968 12.5288 48.5164 12.9485L52.5845 17.0164L64.6947 4.90638H62.8417C62.2481 4.90638 61.7107 4.66581 61.3218 4.27684C60.9328 3.88786 60.6922 3.35049 60.6922 2.7569C60.6922 2.16331 60.9328 1.62594 61.3218 1.23697C61.7107 0.847995 62.2481 0.607425 62.8418 0.607425L63.9022 0.607003C64.9625 0.60616 65.8457 0.60421 66.5838 0.602581C66.8574 0.601977 67.1111 0.601417 67.346 0.600974L68.6868 0.600616Z" fill="#D1CCD2"/>
</svg>
