<svg width="70" height="69" viewBox="0 0 70 69" fill="none" xmlns="http://www.w3.org/2000/svg">
<path fill-rule="evenodd" clip-rule="evenodd" d="M59.3808 10.1201C53.1329 3.87157 44.508 0 35 0C25.492 0 16.8671 3.87157 10.6192 10.1201C4.37124 16.3685 0.5 24.9942 0.5 34.5031C0.5 44.0115 4.37087 52.6353 10.6183 58.8822C16.8663 65.1296 25.4915 69 35 69C44.5085 69 53.1337 65.1296 59.3817 58.8822C65.6291 52.6353 69.5 44.0115 69.5 34.5031C69.5 24.9942 65.6288 16.3685 59.3808 10.1201ZM14.3732 13.8746C19.6438 8.60355 26.9314 5.3495 35 5.3495C43.0686 5.3495 50.3562 8.60354 55.6268 13.8746C60.8973 19.1455 64.1511 26.4338 64.1511 34.5031C64.1511 42.572 60.8976 49.8583 55.6276 55.1276C50.357 60.3975 43.0691 63.6504 35 63.6504C26.9309 63.6504 19.643 60.3975 14.3724 55.1276C9.10236 49.8583 5.84895 42.572 5.84895 34.5031C5.84895 26.4338 9.10271 19.1456 14.3732 13.8746Z" fill="#D1CCD2"/>
<path d="M35.0819 12.6965C35.8204 12.6965 36.489 12.9959 36.973 13.48C37.457 13.964 37.7564 14.6327 37.7564 15.3713V19.04H43.7931C44.5316 19.04 45.2002 19.3394 45.6842 19.8234C46.1682 20.3075 46.4675 20.9762 46.4675 21.7148C46.4675 22.4534 46.1682 23.1221 45.6842 23.6061C45.2002 24.0901 44.5316 24.3895 43.7931 24.3895H32.8993C31.8021 24.3895 30.8541 24.7934 30.1736 25.4375C29.4662 26.1071 29.0451 27.0382 29.0451 28.0643C29.0451 29.0905 29.4663 30.0235 30.1741 30.6947C30.8546 31.3401 31.8025 31.7452 32.8993 31.7452H37.2642C39.7707 31.7452 42.0758 32.756 43.7532 34.3742C45.4197 35.9817 46.4675 38.1906 46.4675 40.6058C46.4675 42.999 45.5708 45.1457 44.1116 46.7623C42.5177 48.5281 40.2536 49.6618 37.7562 49.794V53.4686C37.7562 54.2072 37.4569 54.8759 36.9729 55.3599C36.4889 55.8439 35.8203 56.1433 35.0818 56.1433C34.3433 56.1433 33.6746 55.8439 33.1907 55.3599C32.7067 54.8759 32.4073 54.2072 32.4073 53.4686V49.8063H26.3706C25.6321 49.8063 24.9635 49.5069 24.4795 49.0228C23.9955 48.5388 23.6961 47.8701 23.6961 47.1315C23.6961 46.3929 23.9955 45.7242 24.4795 45.2402C24.9634 44.7561 25.632 44.4568 26.3706 44.4568H37.2643C38.3614 44.4568 39.3095 44.0515 39.9901 43.4054C40.6975 42.7339 41.1186 41.8004 41.1186 40.7727C41.1186 39.7451 40.6976 38.8135 39.9907 38.1437C39.3101 37.4989 38.3619 37.0948 37.2643 37.0948H32.8995C30.3936 37.0948 28.089 36.0829 26.4117 34.4644C24.7446 32.8555 23.6961 30.6454 23.6961 28.2311C23.6961 25.8397 24.5926 23.6952 26.0515 22.0806C27.6454 20.3164 29.9097 19.1842 32.4074 19.0522V15.3713C32.4074 14.6327 32.7068 13.964 33.1908 13.4799C33.6748 12.9959 34.3434 12.6965 35.0819 12.6965Z" fill="#A433D1"/>
</svg>
