<svg width="67" height="66" viewBox="0 0 67 66" fill="none" xmlns="http://www.w3.org/2000/svg">
<path fill-rule="evenodd" clip-rule="evenodd" d="M45.553 0.461243C51.2783 0.461243 56.514 1.51591 60.2971 3.352C62.1374 4.24516 63.6325 5.32245 64.6664 6.55506C65.637 7.71235 66.199 9.00612 66.2498 10.4034L66.2537 49.0984C66.2537 50.5273 65.7279 51.8449 64.781 53.0243C63.7712 54.2822 62.2852 55.3824 60.4433 56.2953C56.6497 58.1756 51.3526 59.2577 45.553 59.2577C42.8596 59.2577 40.2399 59.0182 37.8123 58.5605C38.3859 57.4525 38.8671 56.2905 39.2472 55.0839C41.2322 55.413 43.3618 55.5855 45.553 55.5855C50.3868 55.5855 54.8905 54.7426 58.1512 53.304C59.5622 52.6814 60.6356 51.9962 61.3682 51.3127C62.1866 50.5491 62.5815 49.7817 62.5815 49.0984L62.5819 45.4179C58.8076 48.0666 52.5449 49.6383 45.553 49.6383C43.7327 49.6383 41.9524 49.5302 40.241 49.3191C40.2523 49.0387 40.2576 48.7575 40.2576 48.475C40.2576 47.498 40.1939 46.536 40.0707 45.5929C41.8166 45.8388 43.6578 45.966 45.553 45.966C50.3867 45.966 54.8904 45.1231 58.1511 43.6845C59.5621 43.0619 60.6356 42.3767 61.3681 41.6932C62.1865 40.9296 62.5815 40.1623 62.5815 39.479L62.5819 35.7984C58.8076 38.4471 52.5449 40.0188 45.553 40.0188C43.032 40.0188 40.5861 39.8108 38.3079 39.4141C37.6019 37.8521 36.7179 36.3882 35.6827 35.0475C38.5399 35.8835 41.9481 36.3466 45.553 36.3466C50.3867 36.3466 54.8904 35.5036 58.1511 34.065C59.5621 33.4424 60.6356 32.7573 61.3681 32.0737C62.1865 31.3101 62.5815 30.5428 62.5815 29.8595L62.5819 26.1789C58.8076 28.8276 52.5449 30.3993 45.553 30.3993C38.5617 30.3993 32.2995 28.8279 28.5251 26.1796L28.525 29.0211C27.3589 28.4052 26.1308 27.8911 24.8524 27.4906L24.8523 10.6205C24.8523 9.19166 25.3782 7.87408 26.325 6.69469C27.3349 5.4368 28.8209 4.33657 30.6627 3.42365C34.4564 1.54334 39.7535 0.461243 45.553 0.461243ZM62.5819 16.5594C58.8076 19.2081 52.5449 20.7798 45.553 20.7798C38.5617 20.7798 32.2995 19.2084 28.5252 16.5602L28.5245 20.24C28.5245 20.9233 28.9194 21.6907 29.7378 22.4542C30.4704 23.1378 31.5438 23.8229 32.9549 24.4455C36.2156 25.8841 40.7192 26.7271 45.553 26.7271C50.3867 26.7271 54.8904 25.8841 58.1511 24.4455C59.5621 23.8229 60.6356 23.1378 61.3681 22.4542C62.1865 21.6907 62.5815 20.9233 62.5815 20.24L62.5819 16.5594ZM32.9549 6.41503C36.2156 4.97639 40.7192 4.13344 45.553 4.13344C50.3867 4.13344 54.8904 4.97639 58.1511 6.41503C59.5621 7.0376 60.6356 7.72275 61.3681 8.40627C62.1865 9.16986 62.5815 9.93723 62.5815 10.6205C62.5815 11.3038 62.1865 12.0712 61.3681 12.8348C60.6356 13.5183 59.5621 14.2034 58.1511 14.826C54.8904 16.2646 50.3867 17.1076 45.553 17.1076C40.7192 17.1076 36.2156 16.2646 32.9549 14.826C31.5438 14.2034 30.4704 13.5183 29.7378 12.8348C28.9194 12.0712 28.5245 11.3038 28.5245 10.6205C28.5245 9.93723 28.9194 9.16986 29.7378 8.40627C30.4704 7.72275 31.5438 7.0376 32.9549 6.41503Z" fill="#D1CCD2"/>
<path fill-rule="evenodd" clip-rule="evenodd" d="M18.2713 30.9499C23.1107 30.9499 27.4919 32.9115 30.6633 36.0829C33.8348 39.2543 35.7963 43.6355 35.7963 48.475C35.7963 53.3144 33.8348 57.6956 30.6633 60.8671C27.4919 64.0385 23.1107 66 18.2713 66C13.4318 66 9.05058 64.0385 5.87917 60.8671C2.70777 57.6956 0.746216 53.3144 0.746216 48.475C0.746216 43.6355 2.70777 39.2543 5.87917 36.0829C9.05058 32.9115 13.4318 30.9499 18.2713 30.9499ZM18.2713 33.7659C14.2095 33.7659 10.5322 35.4123 7.8704 38.0741C5.20859 40.7359 3.56223 44.4132 3.56223 48.475C3.56223 52.5368 5.20859 56.214 7.8704 58.8758C10.5322 61.5376 14.2095 63.184 18.2713 63.184C22.3331 63.184 26.0103 61.5376 28.6721 58.8758C31.3339 56.214 32.9803 52.5368 32.9803 48.475C32.9803 44.4132 31.3339 40.7359 28.6721 38.0741C26.0103 35.4123 22.3331 33.7659 18.2713 33.7659ZM19.2648 40.6574L19.2648 38.4272H16.2835L16.283 40.66C15.0211 40.7012 13.888 41.2517 13.0825 42.1125C12.3145 42.9332 11.8444 44.0361 11.8444 45.2488C11.8444 46.5167 12.3583 47.6645 13.1891 48.4953C14.02 49.3262 15.1678 49.8401 16.4357 49.8401H19.9814C20.4606 49.8401 20.8945 50.0344 21.2085 50.3484C21.5226 50.6624 21.7168 51.0963 21.7168 51.5755C21.7168 52.0548 21.5226 52.4886 21.2086 52.8027C20.8945 53.1168 20.4607 53.311 19.9814 53.311H12.5032V56.2923L16.2828 56.2922L16.2835 58.5227H19.2648L19.2648 56.2921L19.9815 56.2923C21.2839 56.2923 22.4631 55.7644 23.3166 54.9108C24.1702 54.0573 24.6981 52.8781 24.6981 51.5756C24.6981 50.2731 24.1702 49.0939 23.3167 48.2403C22.4631 47.3867 21.2839 46.8588 19.9814 46.8588H16.4357C15.9911 46.8588 15.5886 46.6786 15.2973 46.3872C15.0059 46.0959 14.8257 45.6934 14.8257 45.2488C14.8257 44.8042 15.0059 44.4017 15.2973 44.1104C15.5886 43.819 15.9911 43.6388 16.4357 43.6388H22.2598V40.6575L19.2648 40.6574Z" fill="#A433D1"/>
</svg>
