<svg width="72" height="70" viewBox="0 0 72 70" fill="none" xmlns="http://www.w3.org/2000/svg">
<path fill-rule="evenodd" clip-rule="evenodd" d="M36.0022 13.6951C24.2559 13.6951 14.7037 23.2495 14.7037 34.9959C14.7037 46.7422 24.2559 56.2967 36.0022 56.2967C47.7486 56.2967 57.3007 46.7422 57.3007 34.9959C57.3007 23.2495 47.7486 13.6951 36.0022 13.6951ZM36.0022 52.068C26.5887 52.068 18.9301 44.4094 18.9301 34.9959C18.9301 25.5824 26.5887 17.9238 36.0022 17.9238C45.4157 17.9238 53.0743 25.5824 53.0743 34.9959C53.0743 44.4094 45.4157 52.068 36.0022 52.068ZM39.1032 26.7664C37.3906 25.0608 34.6091 25.0608 32.9012 26.7688L27.7774 31.8925C26.9481 32.7241 26.4924 33.8236 26.4924 34.9959C26.4924 36.1682 26.9481 37.27 27.7774 38.0993L32.9012 43.223V43.2254C33.7563 44.0758 34.8793 44.5034 35.9999 44.5034C37.1252 44.5034 38.2481 44.0758 39.1032 43.223L44.227 38.0993C45.0563 37.2676 45.5121 36.1682 45.5121 34.9959C45.5121 33.8236 45.0563 32.7218 44.227 31.8925L39.1032 26.7664ZM36.115 40.2301C36.0539 40.2935 35.9529 40.2935 35.8894 40.2324L30.7657 34.8855L36.1126 29.7617L41.2364 35.1087L36.115 40.2301Z" fill="#A433D1"/>
<path fill-rule="evenodd" clip-rule="evenodd" d="M26.295 5.79917C32.4995 3.70127 39.4862 3.69423 45.7258 5.80622C47.5348 6.39823 49.2638 7.22753 50.9436 8.16958C50.4667 9.28314 50.2059 10.4883 50.2059 11.7381C50.2059 14.1555 51.148 16.4296 52.8582 18.1422C54.6225 19.9065 56.9413 20.7875 59.26 20.7875C61.5787 20.7875 63.8974 19.9065 65.6617 18.1422V18.1399C69.1903 14.6089 69.1903 8.86497 65.6617 5.33637C62.354 2.03094 57.1292 1.86415 53.5795 4.74905C51.5003 3.53213 49.3155 2.53134 47.0649 1.79367C39.9866 -0.597889 32.0226 -0.597889 24.9442 1.79367C23.8377 2.1672 23.2433 3.36768 23.6192 4.47418C23.9904 5.57834 25.1838 6.1727 26.295 5.79917ZM59.2576 6.91742C60.4934 6.91742 61.7291 7.38728 62.6711 8.32933C64.5505 10.2087 64.5505 13.2722 62.6711 15.154C60.7894 17.031 57.7283 17.0334 55.8488 15.1516C54.9373 14.2401 54.4346 13.0279 54.4346 11.7405C54.4346 10.4507 54.9373 9.24085 55.8488 8.32933C56.7886 7.38728 58.0243 6.91742 59.2576 6.91742ZM45.7094 64.1926C39.505 66.2905 32.5183 66.2976 26.2786 64.1856C24.4697 63.5935 22.7406 62.7643 21.0609 61.8198C21.5401 60.7063 21.8009 59.5011 21.8009 58.2513C21.8009 55.8339 20.8588 53.5598 19.1486 51.8472C15.62 48.3186 9.876 48.3162 6.34504 51.8495C2.81644 55.3805 2.81644 61.1245 6.34504 64.6531C8.10935 66.4174 10.4281 67.2983 12.7468 67.2983C14.7719 67.2983 16.7735 66.5842 18.4273 65.2404C20.5064 66.4573 22.6913 67.4581 24.9419 68.1958C28.4799 69.3939 32.2011 70 36.0022 70C39.8033 70 43.5246 69.3915 47.0626 68.1958C48.1691 67.8222 48.7634 66.6217 48.3876 65.5152C48.014 64.4111 46.8183 63.8191 45.7094 64.1926ZM9.33331 61.6648C7.4539 59.7854 7.4539 56.7219 9.33331 54.8425C10.273 53.9028 11.5111 53.4306 12.7468 53.4306C13.9825 53.4306 15.2182 53.9005 16.1579 54.8425C17.0695 55.754 17.5722 56.9663 17.5722 58.2537C17.5722 59.5434 17.0695 60.7533 16.1579 61.6648C14.2762 63.5442 11.2151 63.5442 9.33331 61.6648ZM6.80785 44.7007C7.18138 45.8072 6.58937 47.0077 5.48286 47.3812C5.25733 47.4588 5.02945 47.494 4.80627 47.494C3.92295 47.494 3.1007 46.9396 2.80235 46.0563C1.60422 42.5206 0.998108 38.7994 0.998108 34.9959C0.998108 31.1924 1.60422 27.4712 2.80235 23.9355C3.53767 21.6826 4.53846 19.5001 5.75538 17.421C2.86813 13.8666 3.03727 8.64179 6.3427 5.33636C9.87365 1.80776 15.6176 1.80776 19.1462 5.33636C20.8565 7.04898 21.7985 9.32308 21.7985 11.7405C21.7985 14.1579 20.8565 16.432 19.1486 18.1422C17.3843 19.9065 15.0655 20.7875 12.7468 20.7875C11.5299 20.7875 10.32 20.5314 9.18296 20.0451C8.23856 21.7249 7.40691 23.4563 6.8149 25.2699C5.76008 28.3874 5.22679 31.6552 5.22679 34.9959C5.22679 38.3366 5.75773 41.6044 6.80785 44.7007ZM12.7468 6.91507C11.5111 6.91507 10.273 7.38728 9.33331 8.32698C7.4539 10.2064 7.4539 13.2698 9.33331 15.154C11.2127 17.031 14.2738 17.0334 16.1556 15.1516C17.0671 14.2401 17.5699 13.0279 17.5699 11.7405C17.5699 10.4507 17.0671 9.2385 16.1579 8.32698C15.2182 7.38493 13.9825 6.91507 12.7468 6.91507ZM71.0063 34.9959C71.0063 31.1924 70.4002 27.4712 69.2021 23.9355C68.8286 22.8267 67.6257 22.2323 66.5216 22.6105C65.4151 22.9841 64.8231 24.1846 65.1966 25.2911C66.2467 28.3897 66.7776 31.6552 66.7776 34.9959C66.7776 38.3365 66.2444 41.6044 65.1895 44.7219C64.5975 46.5355 63.7659 48.2669 62.8215 49.9466C59.5184 48.5347 55.5481 49.1596 52.8559 51.8495C51.1456 53.5622 50.2059 55.8339 50.2059 58.2537C50.2059 60.6734 51.148 62.9475 52.8582 64.6578C54.6225 66.4221 56.9413 67.303 59.26 67.303C61.5787 67.303 63.8974 66.4221 65.6617 64.6578C68.9672 61.3523 69.1363 56.1276 66.2491 52.5731C67.466 50.494 68.4668 48.3115 69.2044 46.0586C70.4002 42.5206 71.0063 38.7994 71.0063 34.9959ZM62.6711 61.6648C60.7894 63.5442 57.7283 63.5466 55.8465 61.6648C54.935 60.7533 54.4322 59.5434 54.4322 58.2537C54.4322 56.9663 54.935 55.754 55.8465 54.8425C56.7862 53.9028 58.0219 53.4306 59.2576 53.4306C60.4934 53.4306 61.7291 53.9005 62.6688 54.8402C64.5505 56.7219 64.5505 59.7854 62.6711 61.6648Z" fill="#D1CCD2"/>
</svg>
