<svg width="70" height="70" viewBox="0 0 70 70" fill="none" xmlns="http://www.w3.org/2000/svg">
<path fill-rule="evenodd" clip-rule="evenodd" d="M45.4641 0C50.2051 0 54.4973 1.92112 57.6042 5.02719C60.7111 8.13318 62.6328 12.424 62.6328 17.1636C62.6328 21.9033 60.7111 26.1941 57.6042 29.3001C54.4973 32.4062 50.2051 34.3273 45.4641 34.3273C40.7232 34.3273 36.431 32.4062 33.3241 29.3001C30.2172 26.1942 28.2955 21.9033 28.2955 17.1636C28.2955 12.424 30.2172 8.13314 33.3241 5.02716C36.431 1.92111 40.7232 0 45.4641 0ZM45.4641 3.5318C41.6984 3.5318 38.2893 5.0576 35.8215 7.52442C33.3537 9.99134 31.8273 13.3993 31.8273 17.1636C31.8273 20.9279 33.3537 24.336 35.8215 26.8029C38.2893 29.2697 41.6984 30.7955 45.4641 30.7955C49.2298 30.7955 52.639 29.2697 55.1067 26.8028C57.5746 24.3359 59.101 20.9279 59.101 17.1636C59.101 13.3994 57.5746 9.99137 55.1067 7.52445C52.639 5.05762 49.2298 3.5318 45.4641 3.5318ZM46.7128 7.11301C46.3932 6.79344 45.9517 6.59579 45.4641 6.59579C44.9736 6.59579 44.5298 6.79615 44.2104 7.13011C43.892 7.46305 43.6982 7.92741 43.4768 8.74776C42.5069 9.01771 41.6677 9.6012 41.0751 10.3819C40.4961 11.1446 40.1526 12.0958 40.1526 13.1271C40.1526 14.5682 40.8362 15.9239 41.9948 16.781L46.8327 20.3601C47.0714 20.5366 47.2287 20.8055 47.2435 21.2186C47.2362 21.4878 47.124 21.7312 46.9417 21.9094C46.7656 22.0815 46.5232 22.1934 46.2451 22.2042L44.7173 22.2139C44.4371 22.2156 44.1829 22.1037 43.9982 21.9215C43.8133 21.7391 43.6981 21.4863 43.6964 21.2065C43.6934 20.7189 43.4931 20.2786 43.1716 19.961C42.8501 19.6434 42.4074 19.4484 41.9198 19.4514C41.4321 19.4544 40.9919 19.6547 40.6743 19.9763C40.3567 20.2978 40.1617 20.7404 40.1647 21.2281C40.1709 22.2481 40.5128 23.1874 41.0844 23.9535C41.678 24.7492 42.5191 25.3583 43.6982 25.9657C43.6982 26.4533 43.8959 26.8948 44.2154 27.2143C44.535 27.5339 44.9765 27.7316 45.4641 27.7316C45.9549 27.7316 46.3989 27.5309 46.7182 27.1956C47.0364 26.8614 47.2297 26.3948 47.451 25.5703C48.4195 25.301 49.257 24.7189 49.8487 23.9215C50.423 23.1477 50.7653 22.1715 50.7746 21.0821C50.7485 19.6802 50.0688 18.3609 48.9332 17.5208L44.0953 13.9417C43.8367 13.7504 43.6845 13.4482 43.6845 13.1271C43.6845 12.8472 43.798 12.5937 43.9818 12.4102C44.1653 12.2269 44.4188 12.1135 44.699 12.1135H46.2196C46.4964 12.1135 46.7472 12.224 46.9308 12.4073C47.1092 12.5855 47.2247 12.8334 47.2341 13.1172C47.2342 13.6148 47.4319 14.0562 47.7514 14.3758C48.071 14.6954 48.5125 14.893 49.0001 14.893C49.4878 14.893 49.9292 14.6954 50.2488 14.3758C50.5684 14.0562 50.766 13.6148 50.766 13.1271C50.766 12.1016 50.4263 11.1556 49.8538 10.384C49.2596 9.58318 48.415 8.96993 47.23 8.36169C47.23 7.87405 47.0324 7.43257 46.7128 7.11301Z" fill="#A433D1"/>
<path fill-rule="evenodd" clip-rule="evenodd" d="M29.6266 35.876C33.9126 35.872 37.6056 37.3862 40.3813 40.0375L46.115 40.0388C47.274 40.0388 48.3585 40.3577 49.2853 40.9128C50.3399 41.5444 51.1905 42.4814 51.7146 43.6018L59.8769 38.1404C60.9936 37.378 62.2571 36.993 63.5464 36.993C65.5241 36.993 67.4079 37.8957 68.6435 39.4863C69.7687 40.9339 70.1772 42.7045 69.931 44.3791C69.6848 46.0539 68.7836 47.6327 67.2894 48.6963L53.6338 58.4093C49.6261 61.2248 44.9947 62.7049 40.2339 62.7346L21.5605 63.309C21.9209 63.977 21.9193 64.6035 21.6699 65.112C21.4708 65.5178 21.1169 65.8476 20.6554 66.0053L9.24253 69.9047C8.78115 70.0623 8.29955 70.018 7.89386 69.819C7.48816 69.62 7.15838 69.2662 7.00065 68.8049L0.0953205 48.6077C-0.0624579 48.1462 -0.0182185 47.6645 0.180844 47.2587C0.379906 46.8529 0.733792 46.523 1.1953 46.3653L12.6083 42.4658C13.0697 42.3082 13.5513 42.3524 13.957 42.5515C14.3627 42.7505 14.6925 43.1042 14.8501 43.5654L15.2444 44.721L16.6888 43.8386C17.9718 41.4388 19.8602 39.4642 22.1222 38.0811C24.3397 36.7253 26.9162 35.938 29.6266 35.876ZM12.0796 46.3787L4.00861 49.1364L9.77133 65.9918L17.8421 63.2343L12.5987 47.8996L12.0796 46.3787ZM23.8733 41.1529C25.6643 40.0334 27.7659 39.4038 29.981 39.4038C33.1598 39.4038 36.1261 40.6923 38.2851 42.9332L46.1277 43.5706C46.8536 43.574 47.5103 43.8694 47.9864 44.3452C48.4653 44.8239 48.7615 45.4852 48.7615 46.2157C48.7615 46.9277 48.4811 47.5906 47.985 48.0865C47.492 48.5802 46.8292 48.8608 46.115 48.8608H34.4443C33.9566 48.8608 33.5152 49.0584 33.1956 49.378C32.876 49.6976 32.6784 50.139 32.6784 50.6267C32.6784 51.1143 32.876 51.5558 33.1956 51.8754C33.5152 52.1949 33.9566 52.3926 34.4443 52.3926H46.115C47.7751 52.3926 49.3352 51.7326 50.4831 50.5832C51.3148 49.7518 51.8903 48.7062 52.1451 47.5638L61.8589 41.0637C62.3758 40.7027 62.9532 40.5248 63.5464 40.5248C64.4449 40.5248 65.2945 40.9321 65.8546 41.6532C66.3634 42.3078 66.5482 43.1087 66.4367 43.8662C66.3252 44.6236 65.9176 45.3376 65.2417 45.8187L51.5848 55.5326C48.2638 57.8963 44.2943 59.1774 40.2267 59.2026L20.4035 59.8108L16.4148 48.1446L18.9338 46.6056C19.4221 46.1793 19.5311 46.0397 19.608 45.8877C20.5794 43.9069 22.0686 42.2811 23.8733 41.1529Z" fill="#D1CCD2"/>
</svg>
