<svg width="31" height="21" viewBox="0 0 31 21" fill="none" xmlns="http://www.w3.org/2000/svg">
<path fill-rule="evenodd" clip-rule="evenodd" d="M19 0.078186C18.0795 0.078186 17.3333 0.824386 17.3333 1.74485C17.3333 2.66532 18.0795 3.41152 19 3.41152H25.02L16.6923 11.8693L12.7517 7.86718C12.4385 7.54902 12.0106 7.36985 11.5641 7.36985C11.1176 7.36985 10.6898 7.54902 10.3765 7.86718L1.14573 17.2422C0.499933 17.898 0.508117 18.9533 1.16402 19.5992C1.81992 20.245 2.87515 20.2367 3.52097 19.5808L11.5641 11.412L15.5047 15.4142C15.818 15.7323 16.2458 15.9115 16.6923 15.9115C17.1388 15.9115 17.5667 15.7323 17.88 15.4142L27.3333 5.81312V11.7448C27.3333 12.6653 28.0795 13.4115 29 13.4115C29.9205 13.4115 30.6667 12.6653 30.6667 11.7448V1.75116V1.74485C30.6667 1.73139 30.6665 1.71796 30.6662 1.70457C30.6666 1.7201 30.6667 1.73563 30.6667 1.75116M30.1942 0.582258C30.178 0.565549 30.1613 0.549181 30.1444 0.533164C30.1528 0.541084 30.1611 0.549108 30.1693 0.557236C30.1777 0.56551 30.186 0.573851 30.1942 0.582258ZM29.6273 0.20027C29.4337 0.121551 29.2219 0.078186 29 0.078186H19" fill="#00E676"/>
</svg>
